PathFileType	4	(X/Y/Z)	/Users/itak/Documents/Research/Walk-IL/dataset/trc/00250_00009.trc
DataRate	CameraRate	NumFrames	NumMarkers	Units	OrigDataRate	OrigDataStartFrame	OrigNumFrames
100.000000	100.000000	4	53	mm	100.000000	0	565
Frame#	Time	RPSI			LPSI			L3			STRN			T10			C7			CLAV			RBAK			LBAK			LSHO			LUPA			LAEL			LAOL			LWTS			LWPS			LFRA			LIFD			LHPS			LHTS			RSHO			RUPA			RAEL			RAOL			RWTS			RWPS			RFRA			RHTS			RHPS			RBHD			LFHD			RFHD			LBHD			LHIP			RHIP			RASI			LASI			LKNE			LTHI			LANK			LTIP			LTOE			LMT1			LMT5			LHEE			RKNE			RTHI			RANK			RTIP			RTOE			RMT1			RMT5			RHEE			RIFD			
		X1	Y1	Z1	X2	Y2	Z2	X3	Y3	Z3	X4	Y4	Z4	X5	Y5	Z5	X6	Y6	Z6	X7	Y7	Z7	X8	Y8	Z8	X9	Y9	Z9	X10	Y10	Z10	X11	Y11	Z11	X12	Y12	Z12	X13	Y13	Z13	X14	Y14	Z14	X15	Y15	Z15	X16	Y16	Z16	X17	Y17	Z17	X18	Y18	Z18	X19	Y19	Z19	X20	Y20	Z20	X21	Y21	Z21	X22	Y22	Z22	X23	Y23	Z23	X24	Y24	Z24	X25	Y25	Z25	X26	Y26	Z26	X27	Y27	Z27	X28	Y28	Z28	X29	Y29	Z29	X30	Y30	Z30	X31	Y31	Z31	X32	Y32	Z32	X33	Y33	Z33	X34	Y34	Z34	X35	Y35	Z35	X36	Y36	Z36	X37	Y37	Z37	X38	Y38	Z38	X39	Y39	Z39	X40	Y40	Z40	X41	Y41	Z41	X42	Y42	Z42	X43	Y43	Z43	X44	Y44	Z44	X45	Y45	Z45	X46	Y46	Z46	X47	Y47	Z47	X48	Y48	Z48	X49	Y49	Z49	X50	Y50	Z50	X51	Y51	Z51	X52	Y52	Z52	X53	Y53	Z53	

1	0	-1542.133422851562	1056.738891601562	-374.2337341308594	-1532.42578125	1060.074340820312	-493.5224304199219	-1546.261840820312	1127.566040039062	-454.9446411132812	-1301.817749023438	1331.153686523438	-442.8757019042969	-1550.703857421875	1255.07275390625	-450.6439514160156	-1506.25146484375	1518.397583007812	-457.9191589355469	-1336.415405273438	1444.957153320312	-445.2229309082031	-1576.078002929688	1377.689575195312	-387.7602233886719	-1521.924072265625	1475.68212890625	-564.914306640625	-1433.334350585938	1480.314086914062	-619.8321533203125	-1464.18408203125	1358.937377929688	-694.1854858398438	-1457.60400390625	1150.3837890625	-718.9849243164062	-1526.4521484375	1137.028564453125	-667.2255249023438	-1387.819702148438	905.2481079101562	-674.064453125	-1418.213623046875	897.0079345703125	-753.6221923828125	-1444.020141601562	1043.455810546875	-736.5650024414062	-1412.6376953125	711.5601196289062	-692.4526977539062	-1414.129272460938	806.9149169921875	-755.2622680664062	-1369.22021484375	801.209716796875	-701.891357421875	-1460.826171875	1491.417114257812	-284.9884643554688	-1482.947998046875	1427.043823242188	-217.8451385498047	-1493.799682617188	1146.05078125	-176.4981231689453	-1520.535278320312	1137.827392578125	-267.7744445800781	-1352.645385742188	931.2479248046875	-208.9697875976562	-1408.458618164062	918.7120971679688	-145.8772583007812	-1466.067016601562	1078.86669921875	-161.1190643310547	-1314.233032226562	810.5780639648438	-189.3246765136719	-1368.583374023438	812.0802612304688	-140.4661560058594	-1489.002807617188	1678.161865234375	-435.3060607910156	-1272.333740234375	1740.096923828125	-472.7511291503906	-1301.5634765625	1740.862548828125	-376.9514465332031	-1408.6318359375	1686.565185546875	-550.0017700195312	-1425.994995117188	993.31787109375	-626.5297241210938	-1455.537963867188	1014.998474121094	-261.2088317871094	-1353.9072265625	1057.449951171875	-291.5818176269531	-1327.92529296875	1034.891967773438	-571.9163208007812	-1414.173828125	507.9292907714844	-576.3081665039062	-1406.817626953125	651.0636596679688	-609.1264038085938	-1493.05810546875	38.17966461181641	-556.1585693359375	-1462.33203125	286.5480041503906	-579.1614990234375	-1277.616577148438	46.52141189575195	-505.963134765625	-1343.7744140625	41.81621932983398	-460.5014343261719	-1365.993041992188	39.57505416870117	-576.4983520507812	-1553.535522460938	45.52080535888672	-502.7156982421875	-1433.354125976562	520.6067504882812	-294.4416809082031	-1402.257202148438	787.6002807617188	-248.8225250244141	-1503.369018554688	42.05690765380859	-322.3392944335938	-1429.734497070312	406.2839965820312	-311.5591430664062	-1288.830932617188	46.28633117675781	-350.4037170410156	-1343.507934570312	41.38438034057617	-396.9744873046875	-1394.5166015625	43.51844024658203	-290.0683898925781	-1562.148803710938	37.3575439453125	-383.0640258789062	-1339.36279296875	737.5789184570312	-209.3582763671875	
2	0.01	-1542.133056640625	1056.741455078125	-374.0750122070312	-1532.550537109375	1060.085083007812	-493.3901977539062	-1546.27490234375	1127.590454101562	-454.7923889160156	-1301.890258789062	1331.083862304688	-442.8560791015625	-1550.764892578125	1255.099975585938	-450.5244750976562	-1506.194091796875	1518.400146484375	-457.81640625	-1336.26806640625	1445.015747070312	-445.307373046875	-1576.0576171875	1377.733032226562	-387.6191711425781	-1521.990356445312	1475.722412109375	-564.805908203125	-1433.456665039062	1480.313720703125	-619.78173828125	-1464.35888671875	1358.969970703125	-694.1234130859375	-1457.875366210938	1150.424560546875	-719.0323486328125	-1526.5771484375	1137.053833007812	-667.16796875	-1387.830078125	905.3380737304688	-674.2950439453125	-1418.422241210938	897.0782470703125	-753.8059692382812	-1444.210693359375	1043.504272460938	-736.6419677734375	-1412.835327148438	711.6173706054688	-692.7301635742188	-1414.350830078125	806.9788208007812	-755.48974609375	-1369.317260742188	801.3028564453125	-702.1869506835938	-1460.69921875	1491.442626953125	-284.9051818847656	-1482.823486328125	1427.071166992188	-217.7649688720703	-1493.823608398438	1146.099853515625	-176.3951721191406	-1520.52392578125	1137.869262695312	-267.6426086425781	-1352.661743164062	931.2020263671875	-208.8648834228516	-1408.568115234375	918.7177124023438	-145.7147216796875	-1466.079956054688	1078.900756835938	-160.9834594726562	-1314.406494140625	810.5787963867188	-189.2083129882812	-1368.754760742188	812.0984497070312	-140.3062744140625	-1488.885498046875	1678.172607421875	-435.2449035644531	-1272.225463867188	1740.012817382812	-472.7722778320312	-1301.403930664062	1740.799194335938	-376.971923828125	-1408.577758789062	1686.569702148438	-549.953125	-1426.177978515625	993.3296508789062	-626.4429931640625	-1455.5517578125	1014.992370605469	-261.173583984375	-1353.861328125	1057.435302734375	-291.5908203125	-1328.002563476562	1034.9052734375	-571.8906860351562	-1414.246459960938	507.9553833007812	-576.2940063476562	-1406.898071289062	651.0750732421875	-609.0938110351562	-1493.061401367188	38.17629623413086	-556.1519165039062	-1462.362670898438	286.552490234375	-579.1454467773438	-1277.650512695312	46.50490570068359	-505.9759521484375	-1343.776245117188	41.81707763671875	-460.5037231445312	-1365.996826171875	39.57636260986328	-576.5026245117188	-1553.541748046875	45.52091598510742	-502.7078857421875	-1433.317504882812	520.5888671875	-294.4180603027344	-1402.223510742188	787.5867919921875	-248.7537994384766	-1503.360595703125	42.04271697998047	-322.330078125	-1429.762817382812	406.1710815429688	-311.4922485351562	-1288.83544921875	46.28931045532227	-350.40576171875	-1343.485473632812	41.36582946777344	-396.9543762207031	-1394.519653320312	43.51808929443359	-290.0678405761719	-1562.14794921875	37.36635971069336	-383.0588989257812	-1339.534790039062	737.5494995117188	-209.1358947753906	
3	0.02	-1542.138061523438	1056.74267578125	-373.8783264160156	-1532.699340820312	1060.098876953125	-493.2166748046875	-1546.288452148438	1127.622680664062	-454.5896911621094	-1301.96435546875	1331.014404296875	-442.8396606445312	-1550.84130859375	1255.134643554688	-450.3685302734375	-1506.1259765625	1518.40673828125	-457.6847534179688	-1336.115600585938	1445.073974609375	-445.3889465332031	-1576.035522460938	1377.786376953125	-387.4381103515625	-1522.073852539062	1475.771606445312	-564.67041015625	-1433.602661132812	1480.311889648438	-619.713134765625	-1464.56591796875	1359.001953125	-694.0352172851562	-1458.168334960938	1150.465698242188	-719.0690307617188	-1526.704223632812	1137.0673828125	-667.08349609375	-1387.765258789062	905.4589233398438	-674.5431518554688	-1418.616821289062	897.1566772460938	-753.9879760742188	-1444.405517578125	1043.5546875	-736.7119140625	-1412.905395507812	711.6834106445312	-692.9984130859375	-1414.503051757812	807.051025390625	-755.7101440429688	-1369.3515625	801.4016723632812	-702.5078125	-1460.544067382812	1491.473999023438	-284.7997436523438	-1482.6650390625	1427.107177734375	-217.65869140625	-1493.843627929688	1146.158081054688	-176.2609710693359	-1520.504760742188	1137.923950195312	-267.4715576171875	-1352.698974609375	931.1536865234375	-208.7428436279297	-1408.686645507812	918.7235717773438	-145.5265197753906	-1466.085083007812	1078.941162109375	-160.8161163330078	-1314.597534179688	810.5799560546875	-189.0836639404297	-1368.922241210938	812.1221923828125	-140.1342315673828	-1488.734619140625	1678.18896484375	-435.1554260253906	-1272.097290039062	1739.90966796875	-472.7960205078125	-1301.210327148438	1740.724487304688	-376.9940490722656	-1408.509399414062	1686.574096679688	-549.8895874023438	-1426.39990234375	993.3473510742188	-626.3352661132812	-1455.554443359375	1014.98193359375	-261.1201171875	-1353.805053710938	1057.419067382812	-291.5999145507812	-1328.110595703125	1034.925659179688	-571.8621215820312	-1414.339965820312	507.9862670898438	-576.2743530273438	-1407.009399414062	651.0888671875	-609.0547485351562	-1493.064086914062	38.17273712158203	-556.1453857421875	-1462.402221679688	286.5594177246094	-579.1242065429688	-1277.700317382812	46.48056030273438	-505.9913940429688	-1343.777954101562	41.8187255859375	-460.5070495605469	-1366.002075195312	39.58041763305664	-576.5072021484375	-1553.548950195312	45.52050018310547	-502.6994934082031	-1433.277709960938	520.567138671875	-294.3894958496094	-1402.172119140625	787.5608520507812	-248.6845855712891	-1503.354248046875	42.02479934692383	-322.3184204101562	-1429.796020507812	406.0506286621094	-311.4170837402344	-1288.840576171875	46.29250717163086	-350.4088745117188	-1343.461547851562	41.34683609008789	-396.9346618652344	-1394.523193359375	43.51731491088867	-290.0678100585938	-1562.148681640625	37.37530899047852	-383.0530395507812	-1339.72119140625	737.523193359375	-208.9006652832031	
4	0.03	-1542.151000976562	1056.742065429688	-373.6521301269531	-1532.86279296875	1060.115844726562	-493.0061340332031	-1546.303466796875	1127.661865234375	-454.3410949707031	-1302.03173828125	1330.954345703125	-442.8292236328125	-1550.930053710938	1255.17578125	-450.1799621582031	-1506.052001953125	1518.41943359375	-457.5281677246094	-1335.975952148438	1445.124145507812	-445.4551086425781	-1576.012939453125	1377.847412109375	-387.2218933105469	-1522.17138671875	1475.827270507812	-564.5137329101562	-1433.76220703125	1480.308715820312	-619.6265258789062	-1464.790405273438	1359.027465820312	-693.91943359375	-1458.445922851562	1150.50048828125	-719.0813598632812	-1526.81298828125	1137.059448242188	-666.968994140625	-1387.59130859375	905.6074829101562	-674.7728881835938	-1418.750122070312	897.2352294921875	-754.134765625	-1444.572387695312	1043.599731445312	-736.757080078125	-1412.765869140625	711.7528686523438	-693.2056884765625	-1414.51904296875	807.1248168945312	-755.8812255859375	-1369.276611328125	801.4984130859375	-702.8116455078125	-1460.368896484375	1491.509765625	-284.676025390625	-1482.476928710938	1427.151245117188	-217.5274963378906	-1493.853393554688	1146.221557617188	-176.0992126464844	-1520.476684570312	1137.989501953125	-267.2661743164062	-1352.757568359375	931.1104125976562	-208.6121520996094	-1408.801147460938	918.729248046875	-145.3298187255859	-1466.076171875	1078.985229492188	-160.6256561279297	-1314.789184570312	810.5798950195312	-188.9663238525391	-1369.064086914062	812.14892578125	-139.9692687988281	-1488.5546875	1678.212280273438	-435.0350341796875	-1271.95751953125	1739.793579101562	-472.8211059570312	-1300.992919921875	1740.644165039062	-377.0156555175781	-1408.430053710938	1686.577392578125	-549.8126831054688	-1426.647583007812	993.3714599609375	-626.2112426757812	-1455.539184570312	1014.966491699219	-261.04638671875	-1353.740966796875	1057.401977539062	-291.6068725585938	-1328.249389648438	1034.954956054688	-571.83349609375	-1414.45068359375	508.0193786621094	-576.2488403320312	-1407.154174804688	651.1054077148438	-609.0126953125	-1493.065673828125	38.16979217529297	-556.1399536132812	-1462.450561523438	286.5690307617188	-579.0979614257812	-1277.7646484375	46.44889450073242	-506.0084228515625	-1343.77978515625	41.82127380371094	-460.5110473632812	-1366.008422851562	39.58595657348633	-576.5119018554688	-1553.556274414062	45.51934814453125	-502.691650390625	-1433.239990234375	520.54296875	-294.35791015625	-1402.104370117188	787.520751953125	-248.6224365234375	-1503.352416992188	42.00527954101562	-322.3058166503906	-1429.83056640625	405.9381103515625	-311.3412475585938	-1288.84619140625	46.2956657409668	-350.4136047363281	-1343.442504882812	41.33225631713867	-396.92041015625	-1394.527465820312	43.51642227172852	-290.0684814453125	-1562.1513671875	37.38246536254883	-383.0475158691406	-1339.909057617188	737.4999389648438	-208.6846008300781	
